<mxfile host="app.diagrams.net" modified="2023-06-04T08:47:23.235Z" agent="Mozilla/5.0 (Macintosh; Intel Mac OS X 10_15_7) AppleWebKit/537.36 (KHTML, like Gecko) Chrome/113.0.0.0 Safari/537.36 Edg/113.0.1774.35" version="21.3.2" etag="EOrx_QR3R6Mhb_CdiSmB" type="github">
  <diagram name="第 1 页" id="1jYavSCKH7WF5WN2uM2r">
    <mxGraphModel>
      <root>
        <mxCell id="0" />
        <mxCell id="1" parent="0" />
      </root>
    </mxGraphModel>
  </diagram>
</mxfile>
